<svg xmlns="http://www.w3.org/2000/svg" viewBox="0 0 558 128" width="558" height="128" role="img" aria-label="Navbatchi AI">
<g><defs><linearGradient id="bt" x1="0" y1="0" x2="1" y2="1"><stop offset="0" stop-color="#14B8A6"/><stop offset="1" stop-color="#0F766E"/></linearGradient></defs><path d="M64.00,8.00 L81.14,22.61 L103.60,24.40 L105.39,46.86 L120.00,64.00 L105.39,81.14 L103.60,103.60 L81.14,105.39 L64.00,120.00 L46.86,105.39 L24.40,103.60 L22.61,81.14 L8.00,64.00 L22.61,46.86 L24.40,24.40 L46.86,22.61Z" fill="url(#bt)"/><path d="M64.00,19.00 L77.78,30.74 L95.82,32.18 L97.26,50.22 L109.00,64.00 L97.26,77.78 L95.82,95.82 L77.78,97.26 L64.00,109.00 L50.22,97.26 L32.18,95.82 L30.74,77.78 L19.00,64.00 L30.74,50.22 L32.18,32.18 L50.22,30.74Z" fill="none" stroke="#EAB308" stroke-width="2.5"/><path d="M46 44h36a10 10 0 0 1 10 10v18a10 10 0 0 1-10 10H60l-12 9v-9h-2a10 10 0 0 1-10-10V54a10 10 0 0 1 10-10z" fill="#fff"/><circle cx="52" cy="63" r="4" fill="#0F766E"/><circle cx="64" cy="63" r="4" fill="#0F766E"/><circle cx="76" cy="63" r="4" fill="#EAB308"/></g><path d="M156.06 80Q155.38 80 154.92 79.54Q154.46 79.07 154.46 78.39V36.83Q154.46 36.13 154.92 35.66Q155.38 35.2 156.06 35.2H162.89Q163.93 35.2 164.41 35.68Q164.89 36.16 165.03 36.41L180.65 61.02V36.83Q180.65 36.13 181.11 35.66Q181.58 35.2 182.26 35.2H189.93Q190.63 35.2 191.1 35.66Q191.56 36.13 191.56 36.83V78.37Q191.56 79.05 191.1 79.52Q190.63 80 189.95 80H183.1Q182.06 80 181.6 79.5Q181.13 79 180.96 78.79L165.37 55.1V78.39Q165.37 79.07 164.9 79.54Q164.44 80 163.74 80ZM209.26 80.64Q205.83 80.64 203.1 79.32Q200.36 78 198.78 75.76Q197.2 73.51 197.2 70.7Q197.2 66.15 200.9 63.51Q204.6 60.86 210.72 59.9L218.75 58.69V57.81Q218.75 55.5 217.79 54.28Q216.83 53.07 214.28 53.07Q212.48 53.07 211.37 53.78Q210.26 54.5 209.57 55.69Q209.01 56.49 208 56.49H200.81Q200.12 56.49 199.74 56.09Q199.36 55.7 199.4 55.08Q199.44 53.98 200.3 52.46Q201.15 50.94 202.94 49.48Q204.72 48.03 207.54 47.06Q210.36 46.08 214.36 46.08Q218.5 46.08 221.44 47.04Q224.39 48.01 226.22 49.72Q228.06 51.43 228.94 53.8Q229.81 56.16 229.81 58.92V78.39Q229.81 79.07 229.35 79.54Q228.88 80 228.2 80H220.8Q220.12 80 219.65 79.54Q219.19 79.07 219.19 78.39V76.14Q218.34 77.38 216.95 78.39Q215.56 79.4 213.66 80.02Q211.75 80.64 209.26 80.64ZM212.26 73.33Q214.16 73.33 215.66 72.53Q217.15 71.73 218.01 70.03Q218.87 68.34 218.87 65.78V64.93L213.41 65.88Q210.4 66.38 209.04 67.43Q207.67 68.48 207.67 69.9Q207.67 70.98 208.3 71.74Q208.94 72.5 209.99 72.92Q211.04 73.33 212.26 73.33ZM248.42 80Q247.43 80 246.97 79.51Q246.5 79.02 246.18 78.4L234.09 48.7Q234 48.44 234 48.16Q234 47.57 234.42 47.14Q234.85 46.72 235.44 46.72H242.7Q243.54 46.72 243.98 47.17Q244.41 47.62 244.55 48.04L251.81 67.73L259.06 48.04Q259.23 47.62 259.65 47.17Q260.07 46.72 260.91 46.72H268.18Q268.77 46.72 269.19 47.14Q269.62 47.57 269.62 48.16Q269.62 48.44 269.53 48.7L257.43 78.4Q257.18 79.02 256.68 79.51Q256.18 80 255.2 80ZM294.5 80.64Q290.93 80.64 288.52 79.44Q286.11 78.24 284.55 76.34V78.39Q284.55 79.07 284.08 79.54Q283.62 80 282.94 80H275.73Q275.05 80 274.59 79.54Q274.12 79.07 274.12 78.39V36.17Q274.12 35.49 274.59 35.02Q275.05 34.56 275.73 34.56H283.54Q284.22 34.56 284.68 35.02Q285.15 35.49 285.15 36.17V49.86Q286.71 48.18 289.02 47.13Q291.33 46.08 294.5 46.08Q297.68 46.08 300.14 47.14Q302.6 48.21 304.34 50.17Q306.08 52.13 307.04 54.9Q308.01 57.67 308.12 61.09Q308.18 62.33 308.18 63.32Q308.18 64.31 308.12 65.59Q307.97 69.17 307 71.96Q306.04 74.75 304.3 76.69Q302.56 78.63 300.12 79.64Q297.68 80.64 294.5 80.64ZM291.04 72.09Q293.21 72.09 294.43 71.18Q295.64 70.28 296.18 68.75Q296.72 67.22 296.85 65.35Q297 63.36 296.85 61.37Q296.72 59.5 296.18 57.97Q295.64 56.44 294.43 55.54Q293.21 54.63 291.04 54.63Q289.04 54.63 287.76 55.5Q286.49 56.36 285.85 57.74Q285.21 59.11 285.15 60.71Q285.08 61.95 285.08 63.11Q285.08 64.26 285.15 65.54Q285.24 67.25 285.81 68.74Q286.39 70.23 287.67 71.16Q288.95 72.09 291.04 72.09ZM323.98 80.64Q320.55 80.64 317.82 79.32Q315.09 78 313.51 75.76Q311.93 73.51 311.93 70.7Q311.93 66.15 315.63 63.51Q319.33 60.86 325.44 59.9L333.47 58.69V57.81Q333.47 55.5 332.51 54.28Q331.55 53.07 329.01 53.07Q327.2 53.07 326.09 53.78Q324.98 54.5 324.3 55.69Q323.74 56.49 322.72 56.49H315.54Q314.85 56.49 314.47 56.09Q314.09 55.7 314.13 55.08Q314.17 53.98 315.02 52.46Q315.87 50.94 317.66 49.48Q319.45 48.03 322.27 47.06Q325.09 46.08 329.09 46.08Q333.22 46.08 336.17 47.04Q339.11 48.01 340.95 49.72Q342.78 51.43 343.66 53.8Q344.54 56.16 344.54 58.92V78.39Q344.54 79.07 344.07 79.54Q343.61 80 342.93 80H335.52Q334.84 80 334.38 79.54Q333.91 79.07 333.91 78.39V76.14Q333.06 77.38 331.68 78.39Q330.29 79.4 328.38 80.02Q326.47 80.64 323.98 80.64ZM326.98 73.33Q328.89 73.33 330.38 72.53Q331.87 71.73 332.73 70.03Q333.59 68.34 333.59 65.78V64.93L328.14 65.88Q325.13 66.38 323.76 67.43Q322.39 68.48 322.39 69.9Q322.39 70.98 323.03 71.74Q323.66 72.5 324.71 72.92Q325.76 73.33 326.98 73.33ZM368.32 80Q364.2 80 361.22 78.69Q358.24 77.38 356.65 74.59Q355.06 71.8 355.06 67.39V55.11H350.03Q349.35 55.11 348.88 54.65Q348.42 54.18 348.42 53.5V48.33Q348.42 47.65 348.88 47.18Q349.35 46.72 350.03 46.72H355.06V36.17Q355.06 35.49 355.52 35.02Q355.99 34.56 356.67 34.56H364.08Q364.76 34.56 365.22 35.02Q365.68 35.49 365.68 36.17V46.72H373.7Q374.38 46.72 374.84 47.18Q375.31 47.65 375.31 48.33V53.5Q375.31 54.18 374.84 54.65Q374.38 55.11 373.7 55.11H365.68V66.5Q365.68 68.69 366.52 69.95Q367.36 71.21 369.32 71.21H374.26Q374.94 71.21 375.4 71.67Q375.87 72.14 375.87 72.82V78.39Q375.87 79.07 375.4 79.54Q374.94 80 374.26 80ZM395.96 80.64Q391.24 80.64 387.58 78.92Q383.93 77.2 381.8 73.91Q379.66 70.62 379.46 65.96Q379.39 64.96 379.39 63.4Q379.39 61.84 379.46 60.8Q379.66 56.11 381.78 52.82Q383.89 49.52 387.56 47.8Q391.24 46.08 395.96 46.08Q400.39 46.08 403.54 47.33Q406.68 48.58 408.66 50.44Q410.64 52.3 411.61 54.26Q412.58 56.21 412.65 57.66Q412.71 58.34 412.2 58.8Q411.7 59.26 411.04 59.26H402.9Q402.22 59.26 401.86 58.94Q401.49 58.61 401.17 57.96Q400.38 56.03 399.21 55.17Q398.03 54.31 396.16 54.31Q393.61 54.31 392.22 55.99Q390.83 57.66 390.72 61.12Q390.63 63.68 390.72 65.64Q390.87 69.18 392.24 70.79Q393.61 72.41 396.16 72.41Q398.15 72.41 399.29 71.55Q400.42 70.69 401.17 68.76Q401.45 68.11 401.84 67.78Q402.22 67.46 402.9 67.46H411.04Q411.7 67.46 412.2 67.92Q412.71 68.38 412.65 69.06Q412.58 70.11 412.01 71.58Q411.44 73.05 410.22 74.63Q409.01 76.22 407.07 77.58Q405.14 78.94 402.37 79.79Q399.61 80.64 395.96 80.64ZM419.52 80Q418.84 80 418.38 79.54Q417.92 79.07 417.92 78.39V36.17Q417.92 35.49 418.38 35.02Q418.84 34.56 419.52 34.56H427.73Q428.41 34.56 428.88 35.02Q429.34 35.49 429.34 36.17V50.46Q431.03 48.46 433.55 47.27Q436.08 46.08 439.45 46.08Q443.12 46.08 446.04 47.75Q448.95 49.42 450.63 52.63Q452.31 55.84 452.31 60.54V78.39Q452.31 79.07 451.84 79.54Q451.38 80 450.7 80H442.45Q441.77 80 441.31 79.54Q440.84 79.07 440.84 78.39V60.94Q440.84 57.94 439.39 56.28Q437.93 54.63 435.17 54.63Q432.51 54.63 430.92 56.28Q429.34 57.94 429.34 60.94V78.39Q429.34 79.07 428.88 79.54Q428.41 80 427.73 80ZM460.6 80Q459.92 80 459.46 79.54Q458.99 79.07 458.99 78.39V48.33Q458.99 47.65 459.46 47.18Q459.92 46.72 460.6 46.72H468.17Q468.85 46.72 469.31 47.18Q469.78 47.65 469.78 48.33V78.39Q469.78 79.07 469.31 79.54Q468.85 80 468.17 80ZM460.54 41.95Q459.86 41.95 459.39 41.49Q458.93 41.02 458.93 40.34V34.59Q458.93 33.91 459.39 33.44Q459.86 32.96 460.54 32.96H468.21Q468.89 32.96 469.36 33.44Q469.84 33.91 469.84 34.59V40.34Q469.84 41.02 469.36 41.49Q468.89 41.95 468.21 41.95Z" fill="#fff"/><rect x="485.6" y="37.1" width="59.4" height="39.68" rx="19.8" fill="#EAB308"/><path d="M502.96 65.82Q502.75 65.82 502.59 65.66Q502.44 65.51 502.44 65.29Q502.44 65.19 502.47 65.08L508.24 49.29Q508.32 49.03 508.55 48.81Q508.78 48.6 509.2 48.6H512.85Q513.26 48.6 513.49 48.81Q513.72 49.03 513.8 49.29L519.57 65.08Q519.6 65.19 519.6 65.29Q519.6 65.51 519.45 65.66Q519.29 65.82 519.08 65.82H516.05Q515.67 65.82 515.49 65.64Q515.31 65.45 515.25 65.29L514.31 62.8H507.73L506.79 65.29Q506.74 65.45 506.56 65.64Q506.39 65.82 505.99 65.82ZM508.74 59.25H513.3L511.01 52.76ZM522.66 65.82Q522.4 65.82 522.22 65.64Q522.05 65.46 522.05 65.2V49.21Q522.05 48.95 522.22 48.77Q522.4 48.6 522.66 48.6H525.98Q526.24 48.6 526.42 48.77Q526.59 48.95 526.59 49.21V65.2Q526.59 65.46 526.42 65.64Q526.24 65.82 525.98 65.82Z" fill="#134E4A"/><path d="M153.15 108Q152.97 108 152.86 107.88Q152.74 107.76 152.74 107.58V106.55Q152.74 106.42 152.81 106.19Q152.88 105.95 153.16 105.73L155.4 103.52Q156.63 102.57 157.41 101.9Q158.19 101.23 158.56 100.69Q158.94 100.15 158.94 99.64Q158.94 98.97 158.57 98.54Q158.21 98.11 157.4 98.11Q156.85 98.11 156.48 98.34Q156.11 98.57 155.91 98.95Q155.71 99.32 155.63 99.75Q155.58 99.97 155.42 100.05Q155.26 100.14 155.09 100.14H153.29Q153.13 100.14 153.03 100.04Q152.92 99.93 152.92 99.79Q152.94 99.01 153.25 98.31Q153.57 97.61 154.14 97.07Q154.72 96.52 155.54 96.21Q156.36 95.9 157.39 95.9Q158.81 95.9 159.78 96.37Q160.75 96.84 161.24 97.65Q161.74 98.47 161.74 99.53Q161.74 100.35 161.41 101.04Q161.07 101.74 160.45 102.38Q159.83 103.02 158.96 103.69L156.96 105.71H161.57Q161.76 105.71 161.88 105.83Q162 105.95 162 106.13V107.58Q162 107.76 161.88 107.88Q161.76 108 161.57 108ZM171.94 108Q171.77 108 171.65 107.88Q171.53 107.76 171.53 107.58V105.53H166.19Q166.01 105.53 165.89 105.41Q165.77 105.29 165.77 105.11V103.74Q165.77 103.61 165.82 103.47Q165.87 103.34 165.96 103.22L170.94 96.39Q171.16 96.1 171.57 96.1H173.72Q173.9 96.1 174.02 96.22Q174.14 96.34 174.14 96.52V103.27H175.65Q175.85 103.27 175.96 103.39Q176.08 103.51 176.08 103.68V105.11Q176.08 105.29 175.96 105.41Q175.84 105.53 175.66 105.53H174.14V107.58Q174.14 107.76 174.02 107.88Q173.9 108 173.72 108ZM168.41 103.36H171.59V98.88ZM179.88 109.43Q179.74 109.43 179.63 109.32Q179.52 109.22 179.52 109.07Q179.52 108.99 179.57 108.89L185.34 95.02Q185.4 94.89 185.52 94.77Q185.65 94.64 185.9 94.64H187.21Q187.35 94.64 187.46 94.74Q187.57 94.85 187.57 95Q187.57 95.06 187.52 95.17L181.73 109.04Q181.69 109.16 181.55 109.3Q181.42 109.43 181.16 109.43ZM192.91 108Q192.76 108 192.65 107.89Q192.55 107.78 192.55 107.63Q192.55 107.56 192.59 107.47L196.6 98.38H191.38Q191.2 98.38 191.08 98.26Q190.96 98.14 190.96 97.97V96.53Q190.96 96.34 191.08 96.22Q191.2 96.1 191.38 96.1H199.08Q199.27 96.1 199.39 96.22Q199.51 96.34 199.51 96.53V97.8Q199.51 98.05 199.46 98.21Q199.41 98.38 199.33 98.55L195.34 107.59Q195.28 107.7 195.15 107.85Q195.02 108 194.77 108ZM214.26 108.17Q212.62 108.17 211.53 107.69Q210.43 107.22 209.87 106.45Q209.31 105.68 209.27 104.82Q209.27 104.68 209.38 104.57Q209.48 104.47 209.64 104.47H211.46Q211.68 104.47 211.8 104.55Q211.92 104.64 212.02 104.78Q212.14 105.07 212.4 105.35Q212.67 105.62 213.12 105.8Q213.58 105.97 214.26 105.97Q215.37 105.97 215.92 105.61Q216.47 105.25 216.47 104.64Q216.47 104.21 216.18 103.94Q215.88 103.66 215.24 103.44Q214.6 103.23 213.54 102.98Q212.26 102.69 211.38 102.26Q210.49 101.83 210.04 101.14Q209.59 100.46 209.59 99.43Q209.59 98.41 210.14 97.62Q210.7 96.83 211.73 96.38Q212.75 95.93 214.16 95.93Q215.3 95.93 216.17 96.23Q217.04 96.53 217.63 97.03Q218.22 97.52 218.52 98.09Q218.83 98.66 218.85 99.18Q218.85 99.32 218.75 99.43Q218.65 99.54 218.49 99.54H216.58Q216.42 99.54 216.28 99.47Q216.15 99.41 216.05 99.24Q215.96 98.78 215.46 98.45Q214.95 98.13 214.16 98.13Q213.33 98.13 212.84 98.43Q212.35 98.74 212.35 99.36Q212.35 99.77 212.6 100.06Q212.85 100.34 213.43 100.55Q214.02 100.76 215 101.01Q216.49 101.31 217.42 101.74Q218.36 102.17 218.79 102.84Q219.23 103.51 219.23 104.53Q219.23 105.67 218.6 106.49Q217.97 107.3 216.85 107.74Q215.73 108.17 214.26 108.17ZM228.28 108.17Q226.73 108.17 225.61 107.66Q224.49 107.16 223.87 106.12Q223.24 105.08 223.18 103.53Q223.16 102.8 223.16 102.08Q223.16 101.35 223.18 100.6Q223.24 99.07 223.88 98.03Q224.52 96.98 225.65 96.46Q226.78 95.93 228.28 95.93Q229.78 95.93 230.91 96.46Q232.04 96.98 232.68 98.03Q233.33 99.07 233.37 100.6Q233.41 101.35 233.41 102.08Q233.41 102.8 233.37 103.53Q233.32 105.08 232.69 106.12Q232.06 107.16 230.94 107.66Q229.82 108.17 228.28 108.17ZM228.28 105.97Q229.28 105.97 229.91 105.37Q230.55 104.77 230.59 103.44Q230.62 102.69 230.62 102.04Q230.62 101.39 230.59 100.66Q230.56 99.77 230.26 99.21Q229.96 98.65 229.45 98.39Q228.94 98.13 228.28 98.13Q227.63 98.13 227.12 98.39Q226.6 98.65 226.3 99.21Q226 99.77 225.97 100.66Q225.95 101.39 225.95 102.04Q225.95 102.69 225.97 103.44Q226.02 104.77 226.65 105.37Q227.28 105.97 228.28 105.97ZM241.05 108Q240.87 108 240.75 107.88Q240.63 107.76 240.63 107.58V98.47H237.54Q237.36 98.47 237.24 98.35Q237.12 98.23 237.12 98.05V96.53Q237.12 96.34 237.24 96.22Q237.36 96.1 237.54 96.1H246.44Q246.63 96.1 246.75 96.22Q246.87 96.34 246.87 96.53V98.05Q246.87 98.23 246.75 98.35Q246.63 98.47 246.44 98.47H243.36V107.58Q243.36 107.76 243.24 107.88Q243.12 108 242.94 108ZM255.87 108.17Q254.36 108.17 253.24 107.67Q252.13 107.17 251.51 106.12Q250.9 105.08 250.9 103.45V96.53Q250.9 96.34 251.02 96.22Q251.14 96.1 251.31 96.1H253.17Q253.36 96.1 253.48 96.22Q253.6 96.34 253.6 96.53V103.44Q253.6 104.69 254.19 105.31Q254.79 105.92 255.86 105.92Q256.92 105.92 257.51 105.31Q258.11 104.69 258.11 103.44V96.53Q258.11 96.34 258.23 96.22Q258.36 96.1 258.54 96.1H260.39Q260.57 96.1 260.69 96.22Q260.81 96.34 260.81 96.53V103.45Q260.81 105.08 260.2 106.12Q259.59 107.17 258.48 107.67Q257.37 108.17 255.87 108.17ZM269.16 108Q268.88 108 268.72 107.85Q268.55 107.71 268.49 107.51L264.93 96.61Q264.9 96.53 264.9 96.46Q264.9 96.31 265.01 96.21Q265.11 96.1 265.26 96.1H267.05Q267.31 96.1 267.45 96.24Q267.59 96.38 267.63 96.51L270.27 104.82L272.91 96.51Q272.96 96.38 273.09 96.24Q273.23 96.1 273.49 96.1H275.28Q275.43 96.1 275.53 96.21Q275.64 96.31 275.64 96.46Q275.64 96.53 275.61 96.61L272.05 107.51Q271.99 107.71 271.83 107.85Q271.67 108 271.38 108ZM284.56 108.17Q282.97 108.17 281.85 107.63Q280.73 107.09 280.12 106.07Q279.5 105.04 279.44 103.56Q279.43 102.87 279.43 102.07Q279.43 101.27 279.44 100.54Q279.5 99.08 280.12 98.05Q280.74 97.02 281.87 96.47Q282.99 95.93 284.56 95.93Q285.71 95.93 286.64 96.22Q287.57 96.51 288.25 97.05Q288.93 97.59 289.31 98.33Q289.68 99.06 289.71 99.95Q289.72 100.1 289.61 100.21Q289.5 100.31 289.34 100.31H287.4Q287.19 100.31 287.08 100.21Q286.96 100.12 286.89 99.88Q286.64 98.86 286.04 98.5Q285.44 98.13 284.55 98.13Q283.51 98.13 282.9 98.71Q282.28 99.28 282.23 100.62Q282.18 102.02 282.23 103.48Q282.28 104.82 282.9 105.39Q283.51 105.97 284.55 105.97Q285.44 105.97 286.05 105.6Q286.65 105.22 286.89 104.22Q286.95 103.97 287.07 103.88Q287.19 103.79 287.4 103.79H289.34Q289.5 103.79 289.61 103.89Q289.72 104 289.71 104.15Q289.68 105.04 289.31 105.77Q288.93 106.51 288.25 107.05Q287.57 107.59 286.64 107.88Q285.71 108.17 284.56 108.17ZM294.53 108Q294.35 108 294.23 107.88Q294.11 107.77 294.11 107.58V96.53Q294.11 96.34 294.23 96.22Q294.35 96.1 294.53 96.1H296.39Q296.58 96.1 296.7 96.22Q296.81 96.34 296.81 96.53V100.78H301.42V96.53Q301.42 96.34 301.54 96.22Q301.66 96.1 301.84 96.1H303.7Q303.89 96.1 304.01 96.22Q304.13 96.34 304.13 96.53V107.58Q304.13 107.76 304.01 107.88Q303.89 108 303.7 108H301.84Q301.66 108 301.54 107.88Q301.42 107.76 301.42 107.58V103.19H296.81V107.58Q296.81 107.76 296.7 107.88Q296.58 108 296.39 108ZM309.56 108Q309.38 108 309.26 107.88Q309.14 107.76 309.14 107.58V96.52Q309.14 96.34 309.26 96.22Q309.38 96.1 309.56 96.1H311.5Q311.67 96.1 311.79 96.22Q311.91 96.34 311.91 96.52V107.58Q311.91 107.76 311.79 107.88Q311.67 108 311.5 108ZM317.1 103.99Q316.92 103.99 316.81 103.87Q316.69 103.76 316.69 103.58V102.22Q316.69 102.04 316.81 101.93Q316.92 101.81 317.1 101.81H322.38Q322.56 101.81 322.68 101.93Q322.8 102.04 322.8 102.22V103.58Q322.8 103.76 322.68 103.87Q322.56 103.99 322.38 103.99ZM332.29 108.17Q330.75 108.17 329.63 107.66Q328.51 107.16 327.88 106.12Q327.25 105.08 327.19 103.53Q327.18 102.8 327.18 102.08Q327.18 101.35 327.19 100.6Q327.25 99.07 327.89 98.03Q328.53 96.98 329.66 96.46Q330.79 95.93 332.29 95.93Q333.79 95.93 334.92 96.46Q336.05 96.98 336.7 98.03Q337.35 99.07 337.39 100.6Q337.42 101.35 337.42 102.08Q337.42 102.8 337.39 103.53Q337.34 105.08 336.71 106.12Q336.07 107.16 334.95 107.66Q333.83 108.17 332.29 108.17ZM332.29 105.97Q333.29 105.97 333.92 105.37Q334.56 104.77 334.6 103.44Q334.63 102.69 334.63 102.04Q334.63 101.39 334.6 100.66Q334.58 99.77 334.27 99.21Q333.97 98.65 333.46 98.39Q332.95 98.13 332.29 98.13Q331.64 98.13 331.13 98.39Q330.62 98.65 330.32 99.21Q330.01 99.77 329.98 100.66Q329.96 101.39 329.96 102.04Q329.96 102.69 329.98 103.44Q330.03 104.77 330.66 105.37Q331.3 105.97 332.29 105.97ZM342.44 108Q342.26 108 342.14 107.88Q342.02 107.76 342.02 107.58V96.53Q342.02 96.34 342.14 96.22Q342.26 96.1 342.44 96.1H347.1Q348.47 96.1 349.48 96.53Q350.5 96.95 351.06 97.81Q351.62 98.66 351.62 99.95Q351.62 101.24 351.06 102.08Q350.5 102.91 349.48 103.32Q348.47 103.73 347.1 103.73H344.81V107.58Q344.81 107.76 344.69 107.88Q344.57 108 344.39 108ZM344.77 101.62H347.01Q347.87 101.62 348.35 101.2Q348.84 100.77 348.84 99.93Q348.84 99.18 348.4 98.7Q347.97 98.22 347.01 98.22H344.77ZM356.28 108Q356.1 108 355.98 107.88Q355.86 107.76 355.86 107.58V96.53Q355.86 96.34 355.98 96.22Q356.1 96.1 356.28 96.1H363.98Q364.17 96.1 364.29 96.22Q364.41 96.34 364.41 96.53V97.88Q364.41 98.06 364.29 98.18Q364.17 98.3 363.98 98.3H358.48V100.96H363.61Q363.8 100.96 363.91 101.08Q364.03 101.2 364.03 101.38V102.64Q364.03 102.82 363.91 102.94Q363.8 103.06 363.61 103.06H358.48V105.8H364.12Q364.31 105.8 364.42 105.92Q364.54 106.04 364.54 106.23V107.58Q364.54 107.76 364.42 107.88Q364.31 108 364.12 108ZM369.49 108Q369.31 108 369.19 107.88Q369.07 107.76 369.07 107.58V96.53Q369.07 96.34 369.19 96.22Q369.31 96.1 369.49 96.1H374Q376.13 96.1 377.35 97.08Q378.57 98.06 378.57 99.89Q378.57 101.14 377.98 101.97Q377.38 102.8 376.38 103.2L378.79 107.46Q378.84 107.56 378.84 107.64Q378.84 107.79 378.73 107.89Q378.62 108 378.48 108H376.59Q376.29 108 376.13 107.84Q375.98 107.68 375.9 107.54L373.84 103.65H371.77V107.58Q371.77 107.76 371.65 107.88Q371.53 108 371.35 108ZM371.77 101.49H373.96Q374.88 101.49 375.33 101.07Q375.79 100.64 375.79 99.87Q375.79 99.11 375.34 98.66Q374.9 98.22 373.96 98.22H371.77ZM382.47 108Q382.32 108 382.21 107.89Q382.11 107.79 382.11 107.64Q382.11 107.57 382.13 107.49L386.17 96.55Q386.23 96.37 386.38 96.24Q386.53 96.1 386.81 96.1H388.98Q389.25 96.1 389.4 96.24Q389.55 96.37 389.61 96.55L393.65 107.49Q393.67 107.57 393.67 107.64Q393.67 107.79 393.57 107.89Q393.46 108 393.32 108H391.54Q391.29 108 391.18 107.88Q391.06 107.76 391.02 107.66L390.29 105.76H385.49L384.77 107.66Q384.73 107.76 384.62 107.88Q384.5 108 384.24 108ZM386.13 103.56H389.65L387.89 98.67ZM400.67 108Q400.49 108 400.37 107.88Q400.25 107.76 400.25 107.58V98.47H397.17Q396.99 98.47 396.87 98.35Q396.75 98.23 396.75 98.05V96.53Q396.75 96.34 396.87 96.22Q396.99 96.1 397.17 96.1H406.07Q406.25 96.1 406.37 96.22Q406.49 96.34 406.49 96.53V98.05Q406.49 98.23 406.37 98.35Q406.25 98.47 406.07 98.47H402.99V107.58Q402.99 107.76 402.87 107.88Q402.75 108 402.56 108ZM415.34 108.17Q413.8 108.17 412.68 107.66Q411.56 107.16 410.93 106.12Q410.3 105.08 410.24 103.53Q410.23 102.8 410.23 102.08Q410.23 101.35 410.24 100.6Q410.3 99.07 410.94 98.03Q411.58 96.98 412.71 96.46Q413.84 95.93 415.34 95.93Q416.84 95.93 417.97 96.46Q419.1 96.98 419.75 98.03Q420.4 99.07 420.44 100.6Q420.47 101.35 420.47 102.08Q420.47 102.8 420.44 103.53Q420.39 105.08 419.76 106.12Q419.13 107.16 418 107.66Q416.88 108.17 415.34 108.17ZM415.34 105.97Q416.34 105.97 416.98 105.37Q417.61 104.77 417.65 103.44Q417.69 102.69 417.69 102.04Q417.69 101.39 417.65 100.66Q417.63 99.77 417.32 99.21Q417.02 98.65 416.51 98.39Q416.01 98.13 415.34 98.13Q414.69 98.13 414.18 98.39Q413.67 98.65 413.37 99.21Q413.06 99.77 413.03 100.66Q413.01 101.39 413.01 102.04Q413.01 102.69 413.03 103.44Q413.08 104.77 413.72 105.37Q414.35 105.97 415.34 105.97ZM425.49 108Q425.31 108 425.19 107.88Q425.08 107.76 425.08 107.58V96.53Q425.08 96.34 425.19 96.22Q425.31 96.1 425.49 96.1H430Q432.13 96.1 433.35 97.08Q434.57 98.06 434.57 99.89Q434.57 101.14 433.98 101.97Q433.38 102.8 432.38 103.2L434.79 107.46Q434.84 107.56 434.84 107.64Q434.84 107.79 434.73 107.89Q434.63 108 434.48 108H432.6Q432.29 108 432.14 107.84Q431.98 107.68 431.91 107.54L429.84 103.65H427.78V107.58Q427.78 107.76 427.66 107.88Q427.54 108 427.35 108ZM427.78 101.49H429.96Q430.88 101.49 431.34 101.07Q431.79 100.64 431.79 99.87Q431.79 99.11 431.34 98.66Q430.9 98.22 429.96 98.22H427.78Z" fill="#EAB308"/>
</svg>
